<svg xmlns="http://www.w3.org/2000/svg" width="320" height="360" viewBox="0 0 320 360" role="img" aria-labelledby="title desc">
  <title id="title">Illustration av psykologen Maja Ludvigsen</title>
  <desc id="desc">En lugn, stiliserad illustration i gröna toner av en person som ler mot betraktaren.</desc>
  <defs>
    <linearGradient id="bg" x1="0%" y1="0%" x2="100%" y2="100%">
      <stop offset="0%" stop-color="#f6faf8"/>
      <stop offset="100%" stop-color="#d6e6dd"/>
    </linearGradient>
    <linearGradient id="jumper" x1="0%" y1="0%" x2="100%" y2="0%">
      <stop offset="0%" stop-color="#7fa292"/>
      <stop offset="100%" stop-color="#5f7c6f"/>
    </linearGradient>
  </defs>
  <rect width="320" height="360" rx="32" fill="url(#bg)"/>
  <circle cx="160" cy="136" r="72" fill="#f4ede6"/>
  <path d="M104 276c0-44 24-80 56-80s56 36 56 80" fill="url(#jumper)"/>
  <path d="M160 202c-33 0-60 36-60 80 0 1 .02 2 .06 3h119.88c.04-1 .06-2 .06-3 0-44-27-80-60-80z" fill="#6d8f80" opacity=".3"/>
  <path d="M112 140c4 28 22 58 48 58s44-30 48-58-14-60-48-60-52 32-48 60z" fill="#f8f2ec"/>
  <path d="M200 146c-10 8-24 12-40 12s-30-4-40-12" fill="none" stroke="#1c2b28" stroke-width="3" stroke-linecap="round" opacity=".35"/>
  <path d="M138 156c0 8 10 16 22 16s22-8 22-16" fill="none" stroke="#1c2b28" stroke-width="3" stroke-linecap="round" opacity=".35"/>
  <path d="M130 128c-6 0-10-4-10-10 0-24 18-44 40-44s40 20 40 44c0 6-4 10-10 10" fill="none" stroke="#1c2b28" stroke-width="6" stroke-linecap="round" stroke-linejoin="round" opacity=".4"/>
  <path d="M124 118c12-4 26-6 36-6s24 2 36 6" fill="none" stroke="#1c2b28" stroke-width="5" stroke-linecap="round" stroke-linejoin="round" opacity=".5"/>
  <path d="M136 144c0 4-3 7-7 7s-7-3-7-7 3-7 7-7 7 3 7 7zm62 0c0 4-3 7-7 7s-7-3-7-7 3-7 7-7 7 3 7 7z" fill="#1c2b28" opacity=".45"/>
  <path d="M148 186c4 2 8 3 12 3s8-1 12-3" fill="none" stroke="#1c2b28" stroke-width="4" stroke-linecap="round" opacity=".3"/>
  <path d="M116 202c12-8 28-12 44-12s32 4 44 12" fill="none" stroke="#1c2b28" stroke-width="6" stroke-linecap="round" stroke-linejoin="round" opacity=".35"/>
</svg>
